PathFileType	4	(X/Y/Z)	 staticP072.trc
DataRate	CameraRate	NumFrames	NumMarkers	Units	OrigDataRate	OrigDataStartFrame	OrigNumFrames
100	100	7	53	M	100	38	100
Frame#	Time	RM1D			RM5D			RM2B			LM1D			LM5D			LM2B			RCAL			LCAL			RLMAL			LLMAL			RMMAL			LMMAL			RSTL			LSTL			RFLE			RFME			LFME			LFLE			RHFIB			LHFIB			RTTUB			LTTUB			RSSH			LSSH			RTL			LTL			RTAP			RTAD			LTAP			LTAD			RTPP			RTPD			LTPP			LTPD			RPSIS			LPSIS			RASIS			LASIS			T10			T2			IJ			SA			RACR			LACR			RHLE			LHLE			RUSP			LUSP			RCB			LCB			IN			LHME			RHME			
		X1	Y1	Z1	X2	Y2	Z2	X3	Y3	Z3	X4	Y4	Z4	X5	Y5	Z5	X6	Y6	Z6	X7	Y7	Z7	X8	Y8	Z8	X9	Y9	Z9	X10	Y10	Z10	X11	Y11	Z11	X12	Y12	Z12	X13	Y13	Z13	X14	Y14	Z14	X15	Y15	Z15	X16	Y16	Z16	X17	Y17	Z17	X18	Y18	Z18	X19	Y19	Z19	X20	Y20	Z20	X21	Y21	Z21	X22	Y22	Z22	X23	Y23	Z23	X24	Y24	Z24	X25	Y25	Z25	X26	Y26	Z26	X27	Y27	Z27	X28	Y28	Z28	X29	Y29	Z29	X30	Y30	Z30	X31	Y31	Z31	X32	Y32	Z32	X33	Y33	Z33	X34	Y34	Z34	X35	Y35	Z35	X36	Y36	Z36	X37	Y37	Z37	X38	Y38	Z38	X39	Y39	Z39	X40	Y40	Z40	X41	Y41	Z41	X42	Y42	Z42	X43	Y43	Z43	X44	Y44	Z44	X45	Y45	Z45	X46	Y46	Z46	X47	Y47	Z47	X48	Y48	Z48	X49	Y49	Z49	X50	Y50	Z50	X51	Y51	Z51	X52	Y52	Z52	X53	Y53	Z53	
38	0.3800	-0.095900	0.044976	-0.188815	-0.146711	0.028077	-0.090100	-0.145604	0.062691	-0.142805	-0.090571	0.045977	-0.329111	-0.136799	0.031224	-0.420501	-0.144953	0.067370	-0.357054	-0.310202	0.051798	-0.167566	-0.308428	0.049666	-0.340241	-0.251993	0.083387	-0.124995	-0.250274	0.077614	-0.382792	-0.239073	0.101059	-0.211453	-0.238381	0.096977	-0.295976	-0.260094	0.040324	-0.202121	-0.252563	0.040654	-0.305634	-0.210323	0.499616	-0.113798	-0.228393	0.490376	-0.221506	-0.212069	0.481363	-0.279913	-0.211988	0.492371	-0.386999	-0.235370	0.442745	-0.101377	-0.243665	0.432088	-0.398765	-0.190977	0.424291	-0.157113	-0.182227	0.424331	-0.351309	-0.199270	0.334988	-0.162086	-0.200073	0.217268	-0.342343	-0.179787	0.667729	-0.082082	-0.188706	0.673518	-0.427044	-0.103556	0.704918	-0.171394	-0.126784	0.624243	-0.176641	-0.096658	0.723541	-0.347418	-0.117238	0.627554	-0.337052	-0.282014	0.726111	-0.146429	-0.292469	0.629449	-0.152907	-0.281894	0.685868	-0.362569	-0.283104	0.610509	-0.363499	-0.282016	1.041134	-0.204711	-0.281629	1.039127	-0.304368	-0.106842	1.027800	-0.143300	-0.105313	1.018752	-0.374751	-0.299715	1.213221	-0.266822	-0.299810	1.450391	-0.267054	-0.136185	1.425828	-0.257360	-0.120250	1.372567	-0.259941	-0.247576	1.454470	-0.058910	-0.235778	1.464032	-0.467930	-0.265139	1.095252	-0.041496	-0.245958	1.104009	-0.493518	-0.195754	0.862781	0.054069	-0.166488	0.858707	-0.548101	-0.100823	1.637792	-0.202091	-0.110043	1.629525	-0.330775	-0.255166	1.533217	-0.270289	-0.223637	1.104406	-0.417539	-0.224853	1.093767	-0.115190	
39	0.3900	-0.095908	0.044980	-0.188812	-0.146715	0.028084	-0.090097	-0.145606	0.062678	-0.142824	-0.090554	0.045996	-0.329110	-0.136810	0.031245	-0.420498	-0.144983	0.067367	-0.357081	-0.310202	0.051785	-0.167557	-0.308407	0.049689	-0.340247	-0.252086	0.083418	-0.124966	-0.250251	0.077612	-0.382791	-0.239048	0.101065	-0.211468	-0.238342	0.096972	-0.295978	-0.260120	0.040335	-0.202098	-0.252564	0.040665	-0.305634	-0.210313	0.499613	-0.113819	-0.228351	0.490380	-0.221510	-0.212080	0.481346	-0.279945	-0.212000	0.492362	-0.387013	-0.235354	0.442742	-0.101372	-0.243594	0.432067	-0.398752	-0.190947	0.424303	-0.157100	-0.182191	0.424336	-0.351341	-0.199254	0.334997	-0.162082	-0.200080	0.217246	-0.342362	-0.179835	0.667734	-0.082088	-0.188677	0.673490	-0.427068	-0.103550	0.704917	-0.171408	-0.126745	0.624266	-0.176646	-0.096708	0.723534	-0.347429	-0.117264	0.627556	-0.337062	-0.282000	0.726108	-0.146469	-0.292457	0.629444	-0.152927	-0.281903	0.685887	-0.362594	-0.283103	0.610505	-0.363520	-0.282042	1.041125	-0.204737	-0.281662	1.039102	-0.304380	-0.106845	1.027832	-0.143301	-0.105362	1.018758	-0.374793	-0.299748	1.213198	-0.266834	-0.299870	1.450373	-0.266975	-0.136186	1.425825	-0.257330	-0.120331	1.372558	-0.259933	-0.247626	1.454387	-0.058859	-0.235859	1.464047	-0.467874	-0.265123	1.095172	-0.041563	-0.246052	1.104022	-0.493507	-0.195676	0.862685	0.053869	-0.166554	0.858747	-0.548176	-0.101028	1.637413	-0.201896	-0.110116	1.629546	-0.330708	-0.255233	1.533202	-0.270220	-0.223725	1.104419	-0.417559	-0.224800	1.093708	-0.115239	
40	0.4000	-0.095889	0.044978	-0.188805	-0.146706	0.028076	-0.090101	-0.145574	0.062691	-0.142819	-0.090553	0.046000	-0.329102	-0.136815	0.031232	-0.420511	-0.145033	0.067329	-0.357080	-0.310196	0.051797	-0.167552	-0.308446	0.049728	-0.340216	-0.252035	0.083410	-0.124988	-0.250255	0.077603	-0.382809	-0.239050	0.101051	-0.211461	-0.238357	0.096959	-0.295969	-0.260132	0.040341	-0.202099	-0.252571	0.040645	-0.305639	-0.210301	0.499624	-0.113800	-0.228389	0.490357	-0.221521	-0.212094	0.481354	-0.279952	-0.211991	0.492366	-0.387017	-0.235340	0.442734	-0.101384	-0.243618	0.432070	-0.398756	-0.190926	0.424306	-0.157115	-0.182253	0.424310	-0.351357	-0.199252	0.334994	-0.162095	-0.200086	0.217250	-0.342381	-0.179785	0.667723	-0.082135	-0.188668	0.673503	-0.427076	-0.103540	0.704936	-0.171427	-0.126743	0.624268	-0.176654	-0.096701	0.723564	-0.347437	-0.117264	0.627575	-0.337117	-0.282012	0.726108	-0.146461	-0.292467	0.629454	-0.152921	-0.281906	0.685883	-0.362625	-0.283108	0.610495	-0.363545	-0.282067	1.041120	-0.204744	-0.281693	1.039097	-0.304421	-0.106867	1.027816	-0.143320	-0.105361	1.018783	-0.374812	-0.299793	1.213185	-0.266841	-0.299937	1.450350	-0.266913	-0.136252	1.425834	-0.257242	-0.120324	1.372555	-0.259908	-0.247679	1.454282	-0.058806	-0.235961	1.464060	-0.467812	-0.265099	1.095073	-0.041615	-0.246134	1.104036	-0.493492	-0.195604	0.862569	0.053679	-0.166614	0.858783	-0.548209	-0.100781	1.637387	-0.201887	-0.110196	1.629549	-0.330629	-0.255295	1.533197	-0.270143	-0.223750	1.104420	-0.417547	-0.224799	1.093623	-0.115298	
41	0.4100	-0.095899	0.044994	-0.188812	-0.146685	0.028072	-0.090093	-0.145563	0.062684	-0.142824	-0.090550	0.045980	-0.329115	-0.136821	0.031241	-0.420522	-0.144950	0.067404	-0.357067	-0.310160	0.051779	-0.167530	-0.308483	0.049723	-0.340227	-0.252051	0.083392	-0.124946	-0.250272	0.077604	-0.382804	-0.239038	0.101064	-0.211467	-0.238343	0.096959	-0.295981	-0.260124	0.040336	-0.202103	-0.252573	0.040659	-0.305637	-0.210308	0.499631	-0.113807	-0.228382	0.490374	-0.221532	-0.212114	0.481375	-0.279951	-0.212005	0.492366	-0.387037	-0.235332	0.442741	-0.101400	-0.243613	0.432039	-0.398774	-0.190917	0.424333	-0.157111	-0.182255	0.424339	-0.351387	-0.199252	0.334979	-0.162091	-0.200069	0.217268	-0.342386	-0.179860	0.667769	-0.082111	-0.188714	0.673524	-0.427104	-0.103559	0.704967	-0.171445	-0.126728	0.624281	-0.176660	-0.096731	0.723575	-0.347464	-0.117238	0.627592	-0.337113	-0.282000	0.726091	-0.146450	-0.292476	0.629446	-0.152912	-0.281933	0.685881	-0.362637	-0.283129	0.610487	-0.363578	-0.282082	1.041100	-0.204740	-0.281716	1.039088	-0.304435	-0.106827	1.027889	-0.143327	-0.105366	1.018797	-0.374836	-0.299835	1.213159	-0.266835	-0.300006	1.450327	-0.266834	-0.136295	1.425812	-0.257216	-0.120333	1.372568	-0.259852	-0.247712	1.454227	-0.058738	-0.236054	1.464072	-0.467734	-0.265061	1.094966	-0.041659	-0.246222	1.104052	-0.493487	-0.195560	0.862448	0.053511	-0.166681	0.858810	-0.548258	-0.100878	1.637372	-0.201785	-0.110276	1.629574	-0.330549	-0.255370	1.533168	-0.270060	-0.223826	1.104436	-0.417560	-0.224806	1.093570	-0.115353	
42	0.4200	-0.095907	0.044980	-0.188814	-0.146690	0.028097	-0.090104	-0.145588	0.062688	-0.142820	-0.090550	0.045981	-0.329130	-0.136822	0.031222	-0.420518	-0.145000	0.067368	-0.357093	-0.310189	0.051783	-0.167528	-0.308436	0.049696	-0.340236	-0.252050	0.083397	-0.124958	-0.250275	0.077603	-0.382811	-0.239049	0.101072	-0.211450	-0.238392	0.096958	-0.295987	-0.260096	0.040330	-0.202090	-0.252580	0.040639	-0.305649	-0.210291	0.499645	-0.113830	-0.228391	0.490387	-0.221531	-0.212124	0.481377	-0.279972	-0.212019	0.492377	-0.387055	-0.235345	0.442754	-0.101383	-0.243639	0.432046	-0.398792	-0.190924	0.424314	-0.157120	-0.182243	0.424337	-0.351374	-0.199255	0.334990	-0.162112	-0.200066	0.217264	-0.342413	-0.179804	0.667731	-0.082142	-0.188721	0.673526	-0.427129	-0.103551	0.704942	-0.171459	-0.126750	0.624294	-0.176667	-0.096709	0.723586	-0.347514	-0.117236	0.627584	-0.337144	-0.282002	0.726090	-0.146456	-0.292481	0.629448	-0.152918	-0.281950	0.685889	-0.362670	-0.283138	0.610471	-0.363606	-0.282113	1.041096	-0.204751	-0.281751	1.039071	-0.304471	-0.106886	1.027875	-0.143347	-0.105386	1.018818	-0.374851	-0.299873	1.213143	-0.266829	-0.300062	1.450307	-0.266758	-0.136313	1.425832	-0.257195	-0.120370	1.372566	-0.259842	-0.247763	1.454063	-0.058714	-0.236138	1.464096	-0.467676	-0.265046	1.094846	-0.041702	-0.246300	1.104077	-0.493479	-0.195502	0.862333	0.053360	-0.166770	0.858852	-0.548291	-0.100922	1.637386	-0.201699	-0.110488	1.629639	-0.330431	-0.255429	1.533143	-0.269973	-0.223874	1.104431	-0.417573	-0.224835	1.093490	-0.115424	
43	0.4300	-0.095911	0.044984	-0.188815	-0.146692	0.028084	-0.090093	-0.145588	0.062681	-0.142833	-0.090557	0.045984	-0.329114	-0.136824	0.031232	-0.420524	-0.144968	0.067383	-0.357081	-0.310204	0.051784	-0.167549	-0.308459	0.049729	-0.340246	-0.252075	0.083428	-0.124965	-0.250275	0.077606	-0.382816	-0.239056	0.101048	-0.211452	-0.238358	0.096961	-0.295996	-0.260109	0.040324	-0.202099	-0.252567	0.040641	-0.305654	-0.210301	0.499633	-0.113855	-0.228397	0.490369	-0.221524	-0.212138	0.481388	-0.280010	-0.212018	0.492373	-0.387083	-0.235340	0.442744	-0.101383	-0.243637	0.432075	-0.398829	-0.190964	0.424302	-0.157149	-0.182238	0.424333	-0.351403	-0.199268	0.334986	-0.162104	-0.200083	0.217270	-0.342411	-0.179859	0.667762	-0.082157	-0.188705	0.673511	-0.427157	-0.103594	0.704934	-0.171493	-0.126780	0.624282	-0.176688	-0.096725	0.723590	-0.347537	-0.117306	0.627589	-0.337158	-0.281970	0.726114	-0.146463	-0.292511	0.629459	-0.152924	-0.281997	0.685909	-0.362716	-0.283157	0.610461	-0.363640	-0.282141	1.041094	-0.204787	-0.281772	1.039074	-0.304492	-0.106871	1.027901	-0.143377	-0.105410	1.018834	-0.374888	-0.299922	1.213123	-0.266833	-0.300111	1.450283	-0.266701	-0.136385	1.425829	-0.257185	-0.120340	1.372578	-0.259822	-0.247785	1.454015	-0.058642	-0.236222	1.464101	-0.467610	-0.265071	1.094751	-0.041784	-0.246392	1.104101	-0.493478	-0.195501	0.862218	0.053205	-0.166854	0.858898	-0.548337	-0.101018	1.637322	-0.201586	-0.110600	1.629669	-0.330320	-0.255496	1.533135	-0.269875	-0.223919	1.104444	-0.417570	-0.224834	1.093392	-0.115490	
44	0.4400	-0.095914	0.044990	-0.188813	-0.146667	0.028074	-0.090103	-0.145578	0.062682	-0.142816	-0.090546	0.045984	-0.329109	-0.136823	0.031232	-0.420521	-0.144987	0.067374	-0.357074	-0.310219	0.051801	-0.167537	-0.308485	0.049709	-0.340263	-0.252080	0.083402	-0.124998	-0.250270	0.077585	-0.382817	-0.239059	0.101055	-0.211446	-0.238380	0.096963	-0.295989	-0.260131	0.040334	-0.202091	-0.252589	0.040661	-0.305641	-0.210267	0.499651	-0.113834	-0.228423	0.490348	-0.221530	-0.212128	0.481369	-0.280021	-0.212017	0.492358	-0.387097	-0.235355	0.442747	-0.101381	-0.243626	0.432045	-0.398826	-0.190967	0.424320	-0.157145	-0.182247	0.424368	-0.351431	-0.199278	0.334979	-0.162114	-0.200076	0.217265	-0.342419	-0.179860	0.667757	-0.082174	-0.188747	0.673521	-0.427157	-0.103610	0.704933	-0.171491	-0.126793	0.624279	-0.176697	-0.096796	0.723544	-0.347550	-0.117326	0.627568	-0.337200	-0.282012	0.726101	-0.146496	-0.292523	0.629455	-0.152926	-0.282042	0.685915	-0.362774	-0.283184	0.610465	-0.363680	-0.282169	1.041073	-0.204787	-0.281818	1.039066	-0.304526	-0.106919	1.027905	-0.143380	-0.105441	1.018846	-0.374933	-0.299963	1.213114	-0.266850	-0.300191	1.450270	-0.266652	-0.136378	1.425816	-0.257151	-0.120395	1.372578	-0.259819	-0.247801	1.453923	-0.058568	-0.236310	1.464136	-0.467550	-0.265054	1.094637	-0.041813	-0.246484	1.104138	-0.493483	-0.195496	0.862071	0.053026	-0.166953	0.858930	-0.548372	-0.100702	1.637599	-0.201405	-0.110686	1.629685	-0.330234	-0.255545	1.533102	-0.269801	-0.224026	1.104474	-0.417588	-0.224855	1.093301	-0.115559	
